{
	"asset":{
		"generator":"Khronos glTF Blender I/O v4.0.44",
		"version":"2.0"
	},
	"scene":0,
	"scenes":[
		{
			"name":"Scene",
			"nodes":[
				0,
				1,
				2,
				3,
				4,
				5,
				6,
				7,
				8,
				9,
				10,
				11,
				12,
				13
			]
		}
	],
	"nodes":[
		{
			"mesh":0,
			"name":"Box.000",
			"translation":[
				-6.206254005432129,
				1,
				0
			]
		},
		{
			"mesh":0,
			"name":"Box.001",
			"translation":[
				3.646099090576172,
				1,
				4.622594833374023
			]
		},
		{
			"mesh":0,
			"name":"Box.002",
			"translation":[
				-4.330409049987793,
				1.000000238418579,
				3.6910226345062256
			]
		},
		{
			"mesh":0,
			"name":"Box.003",
			"translation":[
				-6.765660762786865,
				1.000000238418579,
				-3.8826940059661865
			]
		},
		{
			"mesh":0,
			"name":"Box.004",
			"rotation":[
				0,
				0.13535714149475098,
				0,
				0.9907969236373901
			],
			"translation":[
				5.041335105895996,
				1,
				-6.409844875335693
			]
		},
		{
			"mesh":0,
			"name":"Box.005",
			"rotation":[
				0,
				-0.2230888158082962,
				0,
				0.9747981429100037
			],
			"translation":[
				5.3589677810668945,
				1,
				0.26959705352783203
			]
		},
		{
			"mesh":1,
			"name":"Wall.000",
			"translation":[
				-16.916839599609375,
				1,
				-509.8963623046875
			]
		},
		{
			"mesh":1,
			"name":"Wall.001",
			"rotation":[
				0,
				0.7071068286895752,
				0,
				0.7071067094802856
			],
			"scale":[
				12,
				1,
				1
			],
			"translation":[
				-11,
				1,
				-43.01092529296875
			]
		},
		{
			"mesh":1,
			"name":"Wall.002",
			"rotation":[
				0,
				-1,
				0,
				1.6292068494294654e-07
			],
			"translation":[
				18.465301513671875,
				1,
				11
			]
		},
		{
			"mesh":1,
			"name":"Wall.003",
			"rotation":[
				0,
				-0.7071065902709961,
				0,
				0.7071070671081543
			],
			"scale":[
				9.869999885559082,
				1,
				1
			],
			"translation":[
				11,
				1,
				-419.60504150390625
			]
		},
		{
			"camera":0,
			"name":"Camera",
			"rotation":[
				-0.17238740622997284,
				0,
				0,
				0.9850292205810547
			],
			"translation":[
				-0.06577014923095703,
				3.401494026184082,
				10.16593074798584
			]
		},
		{
			"mesh":2,
			"name":"Character",
			"rotation":[
				0,
				-1,
				0,
				4.371138828673793e-08
			],
			"scale":[
				0.30000001192092896,
				0.30000001192092896,
				0.30000001192092896
			],
			"translation":[
				0,
				0.75,
				6.5461883544921875
			]
		},
		{
			"mesh":3,
			"name":"Coin.000",
			"scale":[
				0.5,
				0.5,
				0.5
			],
			"translation":[
				0.3055535554885864,
				0.565944492816925,
				-61.25263595581055
			]
		},
		{
			"mesh":4,
			"name":"Floor.002",
			"scale":[
				1.5199999809265137,
				1,
				1.9200000762939453
			]
		}
	],
	"cameras":[
		{
			"name":"Camera.003",
			"perspective":{
				"aspectRatio":1.7777777777777777,
				"yfov":1.0000008344650269,
				"zfar":100,
				"znear":0.10000000149011612
			},
			"type":"perspective"
		}
	],
	"materials":[
		{
			"doubleSided":true,
			"name":"Box",
			"pbrMetallicRoughness":{
				"baseColorTexture":{
					"index":0
				},
				"metallicFactor":0,
				"roughnessFactor":0.5
			}
		},
		{
			"doubleSided":true,
			"name":"Wall",
			"pbrMetallicRoughness":{
				"baseColorTexture":{
					"index":1
				},
				"metallicFactor":0,
				"roughnessFactor":0.5
			}
		},
		{
			"doubleSided":true,
			"name":"Floor.001",
			"pbrMetallicRoughness":{
				"baseColorTexture":{
					"index":2
				},
				"metallicFactor":0,
				"roughnessFactor":0.5
			}
		}
	],
	"meshes":[
		{
			"name":"Box",
			"primitives":[
				{
					"attributes":{
						"POSITION":0,
						"NORMAL":1,
						"TEXCOORD_0":2
					},
					"indices":3,
					"material":0
				}
			]
		},
		{
			"name":"Wall",
			"primitives":[
				{
					"attributes":{
						"POSITION":4,
						"NORMAL":5,
						"TEXCOORD_0":6
					},
					"indices":7,
					"material":1
				}
			]
		},
		{
			"name":"Character",
			"primitives":[
				{
					"attributes":{
						"POSITION":8,
						"NORMAL":9,
						"TEXCOORD_0":10
					},
					"indices":11,
					"material":1
				}
			]
		},
		{
			"name":"Wall.002",
			"primitives":[
				{
					"attributes":{
						"POSITION":12,
						"NORMAL":13,
						"TEXCOORD_0":14
					},
					"indices":15,
					"material":1
				}
			]
		},
		{
			"name":"Floor.001",
			"primitives":[
				{
					"attributes":{
						"POSITION":16,
						"NORMAL":17,
						"TEXCOORD_0":18
					},
					"indices":19,
					"material":2
				}
			]
		}
	],
	"textures":[
		{
			"sampler":0,
			"source":0
		},
		{
			"sampler":0,
			"source":1
		},
		{
			"sampler":0,
			"source":2
		}
	],
	"images":[
		{
			"mimeType":"image/png",
			"name":"Box",
			"uri":"Box.png"
		},
		{
			"mimeType":"image/png",
			"name":"Wall",
			"uri":"Wall.png"
		},
		{
			"mimeType":"image/png",
			"name":"Floor",
			"uri":"Floor.png"
		}
	],
	"accessors":[
		{
			"bufferView":0,
			"componentType":5126,
			"count":24,
			"max":[
				1,
				1,
				1
			],
			"min":[
				-1,
				-1,
				-1
			],
			"type":"VEC3"
		},
		{
			"bufferView":1,
			"componentType":5126,
			"count":24,
			"type":"VEC3"
		},
		{
			"bufferView":2,
			"componentType":5126,
			"count":24,
			"type":"VEC2"
		},
		{
			"bufferView":3,
			"componentType":5123,
			"count":36,
			"type":"SCALAR"
		},
		{
			"bufferView":4,
			"componentType":5126,
			"count":52,
			"max":[
				44.22810745239258,
				1,
				1
			],
			"min":[
				-9.999996185302734,
				-1,
				-1
			],
			"type":"VEC3"
		},
		{
			"bufferView":5,
			"componentType":5126,
			"count":52,
			"type":"VEC3"
		},
		{
			"bufferView":6,
			"componentType":5126,
			"count":52,
			"type":"VEC2"
		},
		{
			"bufferView":7,
			"componentType":5123,
			"count":90,
			"type":"SCALAR"
		},
		{
			"bufferView":8,
			"componentType":5126,
			"count":1970,
			"max":[
				1.3671875,
				0.984375,
				0.8515625
			],
			"min":[
				-1.3671875,
				-0.984375,
				-0.8515625
			],
			"type":"VEC3"
		},
		{
			"bufferView":9,
			"componentType":5126,
			"count":1970,
			"type":"VEC3"
		},
		{
			"bufferView":10,
			"componentType":5126,
			"count":1970,
			"type":"VEC2"
		},
		{
			"bufferView":11,
			"componentType":5123,
			"count":2904,
			"type":"SCALAR"
		},
		{
			"bufferView":12,
			"componentType":5126,
			"count":2020,
			"max":[
				0.9999997019767761,
				1,
				0.9999993443489075
			],
			"min":[
				-0.9999990463256836,
				-1,
				-1
			],
			"type":"VEC3"
		},
		{
			"bufferView":13,
			"componentType":5126,
			"count":2020,
			"type":"VEC3"
		},
		{
			"bufferView":14,
			"componentType":5126,
			"count":2020,
			"type":"VEC2"
		},
		{
			"bufferView":15,
			"componentType":5123,
			"count":2880,
			"type":"SCALAR"
		},
		{
			"bufferView":16,
			"componentType":5126,
			"count":8,
			"max":[
				10,
				0,
				10
			],
			"min":[
				-10,
				0,
				-44.20833969116211
			],
			"type":"VEC3"
		},
		{
			"bufferView":17,
			"componentType":5126,
			"count":8,
			"type":"VEC3"
		},
		{
			"bufferView":18,
			"componentType":5126,
			"count":8,
			"type":"VEC2"
		},
		{
			"bufferView":19,
			"componentType":5123,
			"count":18,
			"type":"SCALAR"
		}
	],
	"bufferViews":[
		{
			"buffer":0,
			"byteLength":288,
			"byteOffset":0,
			"target":34962
		},
		{
			"buffer":0,
			"byteLength":288,
			"byteOffset":288,
			"target":34962
		},
		{
			"buffer":0,
			"byteLength":192,
			"byteOffset":576,
			"target":34962
		},
		{
			"buffer":0,
			"byteLength":72,
			"byteOffset":768,
			"target":34963
		},
		{
			"buffer":0,
			"byteLength":624,
			"byteOffset":840,
			"target":34962
		},
		{
			"buffer":0,
			"byteLength":624,
			"byteOffset":1464,
			"target":34962
		},
		{
			"buffer":0,
			"byteLength":416,
			"byteOffset":2088,
			"target":34962
		},
		{
			"buffer":0,
			"byteLength":180,
			"byteOffset":2504,
			"target":34963
		},
		{
			"buffer":0,
			"byteLength":23640,
			"byteOffset":2684,
			"target":34962
		},
		{
			"buffer":0,
			"byteLength":23640,
			"byteOffset":26324,
			"target":34962
		},
		{
			"buffer":0,
			"byteLength":15760,
			"byteOffset":49964,
			"target":34962
		},
		{
			"buffer":0,
			"byteLength":5808,
			"byteOffset":65724,
			"target":34963
		},
		{
			"buffer":0,
			"byteLength":24240,
			"byteOffset":71532,
			"target":34962
		},
		{
			"buffer":0,
			"byteLength":24240,
			"byteOffset":95772,
			"target":34962
		},
		{
			"buffer":0,
			"byteLength":16160,
			"byteOffset":120012,
			"target":34962
		},
		{
			"buffer":0,
			"byteLength":5760,
			"byteOffset":136172,
			"target":34963
		},
		{
			"buffer":0,
			"byteLength":96,
			"byteOffset":141932,
			"target":34962
		},
		{
			"buffer":0,
			"byteLength":96,
			"byteOffset":142028,
			"target":34962
		},
		{
			"buffer":0,
			"byteLength":64,
			"byteOffset":142124,
			"target":34962
		},
		{
			"buffer":0,
			"byteLength":36,
			"byteOffset":142188,
			"target":34963
		}
	],
	"samplers":[
		{
			"magFilter":9728,
			"minFilter":9984
		}
	],
	"buffers":[
		{
			"byteLength":142224,
			"uri":"scene.bin"
		}
	]
}
