{
	"asset":{
		"generator":"Khronos glTF Blender I/O v4.0.43",
		"version":"2.0"
	},
	"scene":0,
	"scenes":[
		{
			"name":"Scene",
			"nodes":[
				0,
				1,
				2,
				3,
				4,
				5,
				6,
				7,
				8,
				9,
				10,
				11
			]
		}
	],
	"nodes":[
		{
			"camera":0,
			"name":"Camera",
			"rotation":[
				-0.17238740622997284,
				0,
				0,
				0.9850292205810547
			],
			"translation":[
				-0.06577014923095703,
				3.401494026184082,
				10.16593074798584
			]
		},
		{
			"mesh":0,
			"name":"Character",
			"rotation":[
				0,
				-1,
				0,
				4.371138828673793e-08
			],
			"scale":[
				0.30000001192092896,
				0.30000001192092896,
				0.30000001192092896
			],
			"translation":[
				0,
				0.75,
				6.5461883544921875
			]
		},
		{
			"mesh":1,
			"name":"Floor.002"
		},
		{
			"mesh":2,
			"name":"Generate.000",
			"scale":[
				11.919999122619629,
				1,
				1
			],
			"translation":[
				0,
				0,
				-70
			]
		},
		{
			"mesh":3,
			"name":"Floor.003",
			"translation":[
				0,
				0,
				-54.19596862792969
			]
		},
		{
			"mesh":4,
			"name":"Wall.000",
			"scale":[
				10,
				1,
				1
			],
			"translation":[
				0,
				0,
				11
			]
		},
		{
			"mesh":5,
			"name":"Tree.000",
			"scale":[
				0.6000000238418579,
				0.6000000238418579,
				0.6000000238418579
			],
			"translation":[
				-8,
				0.4852641224861145,
				-9.199999809265137
			]
		},
		{
			"mesh":6,
			"name":"Snowpile.000",
			"scale":[
				1.8000000715255737,
				1,
				2.200000047683716
			],
			"translation":[
				8,
				0.20000000298023224,
				0
			]
		},
		{
			"mesh":7,
			"name":"Snowpile.001",
			"scale":[
				1.0800000429153442,
				0.6000000238418579,
				1.3200000524520874
			],
			"translation":[
				7,
				0.20000000298023224,
				0
			]
		},
		{
			"mesh":5,
			"name":"Tree.001",
			"scale":[
				0.43845734000205994,
				0.43845734000205994,
				0.43845734000205994
			],
			"translation":[
				6.961458206176758,
				0.39354580640792847,
				-13.79617691040039
			]
		},
		{
			"mesh":8,
			"name":"Wall.001",
			"translation":[
				11,
				0,
				-71.30000305175781
			]
		},
		{
			"mesh":9,
			"name":"Wall.002",
			"translation":[
				-11,
				0,
				-71.30000305175781
			]
		}
	],
	"cameras":[
		{
			"name":"Camera.003",
			"perspective":{
				"aspectRatio":1.7777777777777777,
				"yfov":1.0000008344650269,
				"zfar":100,
				"znear":0.10000000149011612
			},
			"type":"perspective"
		}
	],
	"materials":[
		{
			"doubleSided":true,
			"name":"Wall",
			"pbrMetallicRoughness":{
				"baseColorFactor":[
					0.800000011920929,
					0.800000011920929,
					0.800000011920929,
					1
				],
				"metallicFactor":0,
				"roughnessFactor":0.4000000059604645
			}
		},
		{
			"doubleSided":true,
			"name":"Floor.001",
			"pbrMetallicRoughness":{
				"baseColorTexture":{
					"index":0
				},
				"metallicFactor":0,
				"roughnessFactor":0.5
			}
		},
		{
			"doubleSided":true,
			"name":"Floor.004",
			"pbrMetallicRoughness":{
				"baseColorTexture":{
					"index":1
				},
				"metallicFactor":0,
				"roughnessFactor":0.5
			}
		}
	],
	"meshes":[
		{
			"name":"Character",
			"primitives":[
				{
					"attributes":{
						"POSITION":0,
						"NORMAL":1,
						"TEXCOORD_0":2
					},
					"indices":3,
					"material":0
				}
			]
		},
		{
			"name":"Floor.001",
			"primitives":[
				{
					"attributes":{
						"POSITION":4,
						"NORMAL":5,
						"TEXCOORD_0":6
					},
					"indices":7,
					"material":1
				}
			]
		},
		{
			"name":"Cube.001",
			"primitives":[
				{
					"attributes":{
						"POSITION":8,
						"NORMAL":9,
						"TEXCOORD_0":10
					},
					"indices":11,
					"material":0
				}
			]
		},
		{
			"name":"Floor.003",
			"primitives":[
				{
					"attributes":{
						"POSITION":12,
						"NORMAL":13,
						"TEXCOORD_0":14
					},
					"indices":7,
					"material":2
				}
			]
		},
		{
			"name":"Cube.002",
			"primitives":[
				{
					"attributes":{
						"POSITION":15,
						"NORMAL":16,
						"TEXCOORD_0":17
					},
					"indices":18,
					"material":0
				}
			]
		},
		{
			"name":"Cylinder",
			"primitives":[
				{
					"attributes":{
						"POSITION":19,
						"NORMAL":20,
						"TEXCOORD_0":21
					},
					"indices":22,
					"material":1
				}
			]
		},
		{
			"name":"Sphere",
			"primitives":[
				{
					"attributes":{
						"POSITION":23,
						"NORMAL":24,
						"TEXCOORD_0":25
					},
					"indices":26,
					"material":1
				}
			]
		},
		{
			"name":"Sphere.001",
			"primitives":[
				{
					"attributes":{
						"POSITION":27,
						"NORMAL":28,
						"TEXCOORD_0":29
					},
					"indices":26,
					"material":1
				}
			]
		},
		{
			"name":"Cube.004",
			"primitives":[
				{
					"attributes":{
						"POSITION":30,
						"NORMAL":31,
						"TEXCOORD_0":32
					},
					"indices":33,
					"material":0
				}
			]
		},
		{
			"name":"Cube.005",
			"primitives":[
				{
					"attributes":{
						"POSITION":34,
						"NORMAL":35,
						"TEXCOORD_0":36
					},
					"indices":33,
					"material":0
				}
			]
		}
	],
	"textures":[
		{
			"sampler":0,
			"source":0
		},
		{
			"sampler":0,
			"source":0
		}
	],
	"images":[
		{
			"mimeType":"image/png",
			"name":"floor",
			"uri":"floor.png"
		}
	],
	"accessors":[
		{
			"bufferView":0,
			"componentType":5126,
			"count":1970,
			"max":[
				1.3671875,
				0.984375,
				0.8515625
			],
			"min":[
				-1.3671875,
				-0.984375,
				-0.8515625
			],
			"type":"VEC3"
		},
		{
			"bufferView":1,
			"componentType":5126,
			"count":1970,
			"type":"VEC3"
		},
		{
			"bufferView":2,
			"componentType":5126,
			"count":1970,
			"type":"VEC2"
		},
		{
			"bufferView":3,
			"componentType":5123,
			"count":2904,
			"type":"SCALAR"
		},
		{
			"bufferView":4,
			"componentType":5126,
			"count":8,
			"max":[
				10,
				0,
				10
			],
			"min":[
				-10,
				0,
				-44.20833969116211
			],
			"type":"VEC3"
		},
		{
			"bufferView":5,
			"componentType":5126,
			"count":8,
			"type":"VEC3"
		},
		{
			"bufferView":6,
			"componentType":5126,
			"count":8,
			"type":"VEC2"
		},
		{
			"bufferView":7,
			"componentType":5123,
			"count":18,
			"type":"SCALAR"
		},
		{
			"bufferView":8,
			"componentType":5126,
			"count":64,
			"max":[
				1.006711483001709,
				1,
				1
			],
			"min":[
				-1.006711483001709,
				-1,
				-1
			],
			"type":"VEC3"
		},
		{
			"bufferView":9,
			"componentType":5126,
			"count":64,
			"type":"VEC3"
		},
		{
			"bufferView":10,
			"componentType":5126,
			"count":64,
			"type":"VEC2"
		},
		{
			"bufferView":11,
			"componentType":5123,
			"count":96,
			"type":"SCALAR"
		},
		{
			"bufferView":12,
			"componentType":5126,
			"count":8,
			"max":[
				10,
				0,
				10
			],
			"min":[
				-10,
				0,
				-44.20833969116211
			],
			"type":"VEC3"
		},
		{
			"bufferView":13,
			"componentType":5126,
			"count":8,
			"type":"VEC3"
		},
		{
			"bufferView":14,
			"componentType":5126,
			"count":8,
			"type":"VEC2"
		},
		{
			"bufferView":15,
			"componentType":5126,
			"count":82,
			"max":[
				1.2000000476837158,
				1,
				1
			],
			"min":[
				-1.2000000476837158,
				-1,
				-55.20000076293945
			],
			"type":"VEC3"
		},
		{
			"bufferView":16,
			"componentType":5126,
			"count":82,
			"type":"VEC3"
		},
		{
			"bufferView":17,
			"componentType":5126,
			"count":82,
			"type":"VEC2"
		},
		{
			"bufferView":18,
			"componentType":5123,
			"count":156,
			"type":"SCALAR"
		},
		{
			"bufferView":19,
			"componentType":5126,
			"count":4267,
			"max":[
				4.97920036315918,
				17.982372283935547,
				4.317809104919434
			],
			"min":[
				-4.776099681854248,
				-1,
				-5.3619279861450195
			],
			"type":"VEC3"
		},
		{
			"bufferView":20,
			"componentType":5126,
			"count":4267,
			"type":"VEC3"
		},
		{
			"bufferView":21,
			"componentType":5126,
			"count":4267,
			"type":"VEC2"
		},
		{
			"bufferView":22,
			"componentType":5123,
			"count":4428,
			"type":"SCALAR"
		},
		{
			"bufferView":23,
			"componentType":5126,
			"count":864,
			"max":[
				0.9807849526405334,
				0.4258766174316406,
				0.9807849526405334
			],
			"min":[
				-0.9807850122451782,
				-0.37903308868408203,
				-0.9807852506637573
			],
			"type":"VEC3"
		},
		{
			"bufferView":24,
			"componentType":5126,
			"count":864,
			"type":"VEC3"
		},
		{
			"bufferView":25,
			"componentType":5126,
			"count":864,
			"type":"VEC2"
		},
		{
			"bufferView":26,
			"componentType":5123,
			"count":1248,
			"type":"SCALAR"
		},
		{
			"bufferView":27,
			"componentType":5126,
			"count":864,
			"max":[
				0.9807849526405334,
				0.4258766174316406,
				0.9807849526405334
			],
			"min":[
				-0.9807850122451782,
				-0.37903308868408203,
				-0.9807852506637573
			],
			"type":"VEC3"
		},
		{
			"bufferView":28,
			"componentType":5126,
			"count":864,
			"type":"VEC3"
		},
		{
			"bufferView":29,
			"componentType":5126,
			"count":864,
			"type":"VEC2"
		},
		{
			"bufferView":30,
			"componentType":5126,
			"count":24,
			"max":[
				1,
				1,
				27.100000381469727
			],
			"min":[
				-1,
				-1,
				-27.100000381469727
			],
			"type":"VEC3"
		},
		{
			"bufferView":31,
			"componentType":5126,
			"count":24,
			"type":"VEC3"
		},
		{
			"bufferView":32,
			"componentType":5126,
			"count":24,
			"type":"VEC2"
		},
		{
			"bufferView":33,
			"componentType":5123,
			"count":36,
			"type":"SCALAR"
		},
		{
			"bufferView":34,
			"componentType":5126,
			"count":24,
			"max":[
				1,
				1,
				27.100000381469727
			],
			"min":[
				-1,
				-1,
				-27.100000381469727
			],
			"type":"VEC3"
		},
		{
			"bufferView":35,
			"componentType":5126,
			"count":24,
			"type":"VEC3"
		},
		{
			"bufferView":36,
			"componentType":5126,
			"count":24,
			"type":"VEC2"
		}
	],
	"bufferViews":[
		{
			"buffer":0,
			"byteLength":23640,
			"byteOffset":0,
			"target":34962
		},
		{
			"buffer":0,
			"byteLength":23640,
			"byteOffset":23640,
			"target":34962
		},
		{
			"buffer":0,
			"byteLength":15760,
			"byteOffset":47280,
			"target":34962
		},
		{
			"buffer":0,
			"byteLength":5808,
			"byteOffset":63040,
			"target":34963
		},
		{
			"buffer":0,
			"byteLength":96,
			"byteOffset":68848,
			"target":34962
		},
		{
			"buffer":0,
			"byteLength":96,
			"byteOffset":68944,
			"target":34962
		},
		{
			"buffer":0,
			"byteLength":64,
			"byteOffset":69040,
			"target":34962
		},
		{
			"buffer":0,
			"byteLength":36,
			"byteOffset":69104,
			"target":34963
		},
		{
			"buffer":0,
			"byteLength":768,
			"byteOffset":69140,
			"target":34962
		},
		{
			"buffer":0,
			"byteLength":768,
			"byteOffset":69908,
			"target":34962
		},
		{
			"buffer":0,
			"byteLength":512,
			"byteOffset":70676,
			"target":34962
		},
		{
			"buffer":0,
			"byteLength":192,
			"byteOffset":71188,
			"target":34963
		},
		{
			"buffer":0,
			"byteLength":96,
			"byteOffset":71380,
			"target":34962
		},
		{
			"buffer":0,
			"byteLength":96,
			"byteOffset":71476,
			"target":34962
		},
		{
			"buffer":0,
			"byteLength":64,
			"byteOffset":71572,
			"target":34962
		},
		{
			"buffer":0,
			"byteLength":984,
			"byteOffset":71636,
			"target":34962
		},
		{
			"buffer":0,
			"byteLength":984,
			"byteOffset":72620,
			"target":34962
		},
		{
			"buffer":0,
			"byteLength":656,
			"byteOffset":73604,
			"target":34962
		},
		{
			"buffer":0,
			"byteLength":312,
			"byteOffset":74260,
			"target":34963
		},
		{
			"buffer":0,
			"byteLength":51204,
			"byteOffset":74572,
			"target":34962
		},
		{
			"buffer":0,
			"byteLength":51204,
			"byteOffset":125776,
			"target":34962
		},
		{
			"buffer":0,
			"byteLength":34136,
			"byteOffset":176980,
			"target":34962
		},
		{
			"buffer":0,
			"byteLength":8856,
			"byteOffset":211116,
			"target":34963
		},
		{
			"buffer":0,
			"byteLength":10368,
			"byteOffset":219972,
			"target":34962
		},
		{
			"buffer":0,
			"byteLength":10368,
			"byteOffset":230340,
			"target":34962
		},
		{
			"buffer":0,
			"byteLength":6912,
			"byteOffset":240708,
			"target":34962
		},
		{
			"buffer":0,
			"byteLength":2496,
			"byteOffset":247620,
			"target":34963
		},
		{
			"buffer":0,
			"byteLength":10368,
			"byteOffset":250116,
			"target":34962
		},
		{
			"buffer":0,
			"byteLength":10368,
			"byteOffset":260484,
			"target":34962
		},
		{
			"buffer":0,
			"byteLength":6912,
			"byteOffset":270852,
			"target":34962
		},
		{
			"buffer":0,
			"byteLength":288,
			"byteOffset":277764,
			"target":34962
		},
		{
			"buffer":0,
			"byteLength":288,
			"byteOffset":278052,
			"target":34962
		},
		{
			"buffer":0,
			"byteLength":192,
			"byteOffset":278340,
			"target":34962
		},
		{
			"buffer":0,
			"byteLength":72,
			"byteOffset":278532,
			"target":34963
		},
		{
			"buffer":0,
			"byteLength":288,
			"byteOffset":278604,
			"target":34962
		},
		{
			"buffer":0,
			"byteLength":288,
			"byteOffset":278892,
			"target":34962
		},
		{
			"buffer":0,
			"byteLength":192,
			"byteOffset":279180,
			"target":34962
		}
	],
	"samplers":[
		{
			"magFilter":9728,
			"minFilter":9984
		}
	],
	"buffers":[
		{
			"byteLength":279372,
			"uri":"scene.bin"
		}
	]
}
